<svg xmlns="http://www.w3.org/2000/svg" width="120" height="38" fill="none">
    <path fill="#F5F5F5"
        d="M19 34c8.284 0 15-6.716 15-15 0-8.284-6.716-15-15-15-8.284 0-15 6.716-15 15 0 8.284 6.716 15 15 15ZM60 32c7.18 0 13-5.82 13-13S67.18 6 60 6s-13 5.82-13 13 5.82 13 13 13ZM101 34c8.284 0 15-6.716 15-15 0-8.284-6.716-15-15-15-8.284 0-15 6.716-15 15 0 8.284 6.716 15 15 15Z" />
    <path fill="#000"
        d="M100.903 0c-10.494 0-19 8.508-19 19.001 0 10.494 8.506 18.999 19 18.999 10.493 0 19.001-8.505 19.001-18.999C119.904 8.508 111.396 0 100.903 0Zm7.688 27.722h-6.695v-.993c1.276 0 1.779-.248 1.536-1.283l-.937-3.143h-4.913l-.925 3.105c-.295 1.05.302 1.321 1.494 1.321v.993h-4.934v-.993c1.36 0 1.9-.822 2.27-2.07v.021l3.856-12.955-.396-1.335v-.283h3.262l4.288 14.4-.005-.047c.481 1.616.822 2.269 2.099 2.269v.993Zm-8.665-13.814-1.97 7.006h4.164l-1.969-7.006h-.225ZM59.952 0C49.458 0 40.95 8.508 40.95 19.001c0 10.494 8.507 18.999 19 18.999 10.494 0 19.002-8.505 19.002-18.999C78.953 8.508 70.445 0 59.952 0Zm7.065 19.807c-1.192.086-1.503.597-1.503 2.468v4.283c-1.448.965-3.576 1.532-5.276 1.532-5.136 0-8.115-4.056-8.115-8.822 0-4.765 3.178-9.388 7.831-9.388 2.098 0 3.148 1.105 3.742 1.105.342 0 .455-.255.483-1.105h1.049l.426 5.672h-1.02c-.682-2.892-2.441-4.253-4.425-4.253-2.44 0-4.709 2.58-4.709 7.43s2.042 7.972 4.738 7.972c.992 0 1.73-.314 2.269-.852V22.7c0-2.325-.255-2.78-2.241-2.894v-.935h6.751v.935ZM18.247 13.908h-.222l-1.972 7.006h4.164l-1.97-7.006Zm0 0h-.222l-1.972 7.006h4.164l-1.97-7.006ZM19.001 0C8.508 0 0 8.508 0 19.001 0 29.495 8.508 38 19.001 38 29.495 38 38 29.495 38 19.001 38 8.508 29.495 0 19.001 0Zm7.686 27.722h-6.693v-.993c1.274 0 1.777-.248 1.534-1.283l-.937-3.143h-4.913l-.925 3.105c-.293 1.05.302 1.321 1.497 1.321v.993h-4.937v-.993c1.363 0 1.902-.822 2.27-2.07v.021l3.859-12.955-.399-1.335v-.283h3.262l4.29 14.4-.006-.047c.482 1.616.822 2.269 2.098 2.269v.993Zm-8.662-13.814-1.972 7.006h4.164l-1.97-7.006h-.222Zm.222 0h-.222l-1.972 7.006h4.164l-1.97-7.006Zm0 0h-.222l-1.972 7.006h4.164l-1.97-7.006Z" />
</svg>