<svg xmlns="http://www.w3.org/2000/svg" width="162" height="120" fill="none">
    <path fill="#F8F8F8" stroke="#000" stroke-miterlimit="10"
        d="M142.893 119H19.125L1 101.514V18.486L19.125 1h123.768L161 18.469v83.028l-18.107 17.469V119Z" />
    <path fill="#000"
        d="M30.475 40.717V26.814H26.93V23.93h9.535v2.884H32.92v13.903h-2.444ZM38.447 40.717V23.93h8.614v2.884h-6.15v3.766h4.067v2.885H40.91v4.347h6.23v2.885h-8.674l-.02.02ZM48.584 40.717l3.325-8.553-3.245-8.214h2.785l1.422 3.606.741 2.284.761-2.284 1.423-3.606h2.724l-3.245 8.153 3.385 8.634h-2.724l-1.523-3.946-.78-2.284-.782 2.264-1.523 3.966h-2.724l-.02-.02ZM63.288 40.717V26.814h-3.546V23.93h9.536v2.884h-3.546v13.903h-2.444ZM75.467 40.997c-1.022 0-1.923-.36-2.684-1.061-.761-.701-1.362-1.703-1.783-3.005-.42-1.302-.621-2.845-.621-4.608 0-1.762.2-3.345.62-4.647.422-1.302 1.023-2.304 1.784-2.985a3.836 3.836 0 0 1 2.684-1.042c1.022 0 1.903.341 2.684 1.042.762.701 1.363 1.683 1.783 2.985.421 1.282.641 2.845.641 4.647 0 1.803-.2 3.326-.64 4.608-.421 1.302-1.022 2.304-1.784 3.005-.76.7-1.662 1.061-2.684 1.061Zm0-2.884c.5 0 .942-.22 1.322-.681.38-.461.681-1.122.902-1.983.22-.862.32-1.904.32-3.126s-.1-2.283-.32-3.145c-.22-.861-.521-1.522-.902-1.963-.38-.46-.821-.68-1.322-.68-.5 0-.941.22-1.322.68-.4.46-.701 1.122-.921 1.983-.22.862-.321 1.903-.321 3.125s.1 2.264.32 3.126c.22.86.521 1.522.922 1.983.4.46.841.68 1.322.68ZM86.486 40.998c-.942 0-1.763-.26-2.444-.761-.681-.521-1.202-1.242-1.583-2.184-.38-.941-.56-2.063-.56-3.365h2.403c0 1.101.18 1.963.541 2.544.36.58.902.881 1.623.881.58 0 1.022-.18 1.362-.54.34-.361.52-.882.52-1.543 0-.48-.12-.861-.34-1.162-.22-.28-.52-.52-.901-.701-.38-.18-.781-.36-1.222-.521-.44-.16-.882-.36-1.342-.58-.441-.221-.862-.522-1.242-.862-.38-.36-.681-.822-.902-1.403-.22-.58-.34-1.322-.34-2.223 0-.902.18-1.763.52-2.504.361-.741.842-1.342 1.483-1.763.641-.44 1.382-.641 2.264-.641.8 0 1.522.22 2.203.641.661.44 1.202 1.062 1.623 1.883.42.821.64 1.803.66 2.985H88.35c0-.581-.12-1.062-.32-1.442-.201-.381-.441-.682-.742-.882-.3-.2-.62-.3-.961-.3-.501 0-.922.16-1.262.5-.341.34-.501.822-.501 1.443 0 .44.12.801.34 1.081.22.28.521.501.902.662.38.16.781.32 1.242.48.44.16.901.34 1.342.561.44.22.861.521 1.222.882.38.38.681.881.901 1.502.22.621.34 1.422.34 2.384s-.2 1.843-.58 2.604c-.38.761-.901 1.342-1.563 1.763-.66.42-1.422.621-2.263.621l.04-.04ZM108.421 40.997c-1.062 0-1.963-.36-2.725-1.081-.761-.721-1.342-1.743-1.763-3.045-.42-1.302-.621-2.825-.621-4.548 0-1.722.221-3.285.642-4.587.42-1.302 1.021-2.304 1.802-3.025.782-.721 1.703-1.062 2.745-1.062.821 0 1.582.24 2.284.701.701.461 1.262 1.142 1.702 2.004.441.881.701 1.923.742 3.165h-2.685c-.06-.902-.28-1.623-.641-2.164-.36-.54-.841-.82-1.422-.82-.521 0-.982.22-1.382.68-.401.44-.722 1.102-.942 1.963-.22.862-.34 1.923-.34 3.145s.12 2.284.34 3.145c.22.862.521 1.523.922 1.964.38.44.841.68 1.342.68.42 0 .781-.12 1.102-.38.32-.24.56-.6.761-1.062.2-.46.32-1.021.36-1.662h2.665c-.08 1.222-.321 2.283-.742 3.165-.42.901-.961 1.582-1.662 2.083-.701.481-1.523.741-2.464.741h-.02ZM119.219 40.997c-1.022 0-1.923-.36-2.684-1.061-.761-.701-1.362-1.703-1.783-3.005-.421-1.302-.621-2.845-.621-4.608 0-1.762.2-3.345.621-4.647s1.022-2.304 1.783-2.985a3.834 3.834 0 0 1 2.684-1.042c1.022 0 1.903.341 2.684 1.042.762.701 1.363 1.683 1.783 2.985.421 1.282.641 2.845.641 4.647 0 1.803-.2 3.326-.641 4.608-.42 1.302-1.021 2.304-1.783 3.005-.761.7-1.662 1.061-2.684 1.061Zm0-2.884c.501 0 .942-.22 1.322-.681.381-.461.681-1.122.902-1.983.22-.862.32-1.904.32-3.126s-.1-2.283-.32-3.145c-.221-.861-.521-1.522-.902-1.963-.38-.46-.821-.68-1.322-.68-.501 0-.941.22-1.322.68-.401.46-.701 1.122-.922 1.983-.22.862-.32 1.903-.32 3.125s.1 2.264.32 3.126c.221.86.521 1.522.922 1.983.401.46.841.68 1.322.68ZM124.967 40.717l.841-16.787h3.045l1.002 8.253.32 3.506.321-3.506 1.001-8.253h2.985l.842 16.787h-2.404l-.181-8.814v-4.408l-.5 4.408-1.122 8.814h-1.943l-1.142-8.814-.461-4.428-.06 4.428-.2 8.814h-2.344ZM31.856 69.844c-1.061 0-1.963-.36-2.724-1.082-.761-.72-1.342-1.743-1.763-3.045-.42-1.302-.621-2.824-.621-4.547 0-1.723.22-3.285.641-4.587.42-1.302 1.022-2.304 1.803-3.025.781-.721 1.703-1.062 2.744-1.062.822 0 1.583.24 2.284.701.701.461 1.262 1.142 1.703 2.003.44.882.701 1.924.741 3.166H33.98c-.06-.902-.28-1.623-.641-2.164-.36-.54-.842-.821-1.423-.821-.52 0-.981.22-1.382.68-.4.442-.721 1.103-.941 1.964-.22.861-.34 1.923-.34 3.145s.12 2.284.34 3.145c.22.862.52 1.523.921 1.963.38.441.841.681 1.342.681.421 0 .782-.12 1.102-.38.32-.24.561-.601.761-1.062.2-.46.32-1.021.36-1.663h2.665c-.08 1.222-.32 2.284-.741 3.165-.42.902-.962 1.583-1.663 2.084-.7.48-1.522.741-2.464.741h-.02ZM42.655 69.844c-1.022 0-1.924-.36-2.685-1.062-.76-.7-1.362-1.702-1.783-3.004-.42-1.303-.62-2.845-.62-4.608 0-1.763.2-3.345.62-4.647.421-1.303 1.022-2.304 1.783-2.985a3.835 3.835 0 0 1 2.685-1.042c1.021 0 1.903.34 2.684 1.042.761.7 1.362 1.683 1.783 2.985.42 1.282.64 2.844.64 4.647 0 1.803-.2 3.326-.64 4.608-.42 1.302-1.022 2.303-1.783 3.004-.761.702-1.663 1.062-2.684 1.062Zm0-2.885c.5 0 .941-.22 1.322-.68.38-.461.68-1.123.901-1.984.22-.861.32-1.903.32-3.125s-.1-2.284-.32-3.145c-.22-.861-.52-1.522-.901-1.963-.38-.46-.822-.681-1.322-.681-.501 0-.942.22-1.322.68-.401.462-.702 1.123-.922 1.984-.22.861-.32 1.903-.32 3.125s.1 2.264.32 3.125c.22.861.52 1.523.922 1.983.4.461.84.681 1.322.681ZM49.045 69.564V52.776h3.105l3.826 12.4-.16-5.789v-6.61h2.324v16.787h-3.105l-3.847-12.22.2 5.609v6.61h-2.343ZM63.288 69.564V55.66h-3.546v-2.885h9.536v2.885h-3.546v13.903h-2.444ZM71.26 69.564V52.776h8.614v2.885h-6.15v3.766h4.066v2.885h-4.066v4.347h6.23v2.884H71.28l-.02.02ZM86.384 69.844c-.981 0-1.843-.26-2.544-.781-.7-.521-1.242-1.262-1.622-2.204-.381-.941-.581-2.043-.581-3.285V52.777H84.1v10.797c0 .681.1 1.282.28 1.783.18.5.46.881.801 1.162.341.28.742.42 1.202.42.461 0 .882-.14 1.222-.42.34-.28.601-.661.802-1.162.2-.501.28-1.082.28-1.783V52.777h2.464v10.797c0 1.242-.2 2.344-.58 3.285-.382.942-.922 1.683-1.624 2.204-.7.52-1.562.781-2.544.781h-.02Zm-1.402-18.55 1.442-4.106h2.444l-1.883 4.106h-2.003ZM92.856 69.564V52.776h3.846c.881 0 1.662.2 2.364.581.7.38 1.282.962 1.782 1.683.501.721.862 1.603 1.122 2.624.261 1.022.381 2.164.381 3.446s-.12 2.444-.381 3.465c-.26 1.042-.641 1.924-1.122 2.665-.5.74-1.081 1.322-1.782 1.703a4.86 4.86 0 0 1-2.364.58h-3.846v.04Zm2.443-2.885h1.403c.66 0 1.222-.22 1.682-.681.461-.461.822-1.102 1.062-1.943.24-.842.36-1.803.36-2.925 0-1.122-.12-2.084-.36-2.905-.24-.801-.6-1.442-1.062-1.883a2.362 2.362 0 0 0-1.682-.681h-1.403v11.018ZM108.28 69.844c-1.022 0-1.923-.36-2.685-1.062-.761-.7-1.362-1.702-1.783-3.004-.42-1.303-.621-2.845-.621-4.608 0-1.763.201-3.345.621-4.647.421-1.303 1.022-2.304 1.783-2.985a3.838 3.838 0 0 1 2.685-1.042c1.021 0 1.903.34 2.684 1.042.761.7 1.362 1.683 1.783 2.985.421 1.282.641 2.844.641 4.647 0 1.803-.2 3.326-.641 4.608-.421 1.302-1.022 2.303-1.783 3.004-.761.702-1.663 1.062-2.684 1.062Zm0-2.885c.5 0 .941-.22 1.322-.68.38-.461.681-1.123.901-1.984.221-.861.321-1.903.321-3.125s-.1-2.284-.321-3.145c-.22-.861-.521-1.522-.901-1.963-.381-.46-.822-.681-1.322-.681-.501 0-.942.22-1.323.68-.4.462-.701 1.123-.921 1.984-.22.861-.321 1.903-.321 3.125s.101 2.264.321 3.125c.22.861.521 1.523.921 1.983.401.461.842.681 1.323.681ZM125.949 69.564V52.776h8.614v2.885h-6.15v3.766h4.067v2.885h-4.067v4.347h6.23v2.884h-8.674l-.02.02ZM27.35 98.41V81.623h2.444V98.41H27.35Zm1.742-5.549v-2.885h2.805c.6 0 1.102-.26 1.462-.76.38-.521.561-1.183.561-2.024s-.18-1.442-.54-1.943c-.361-.48-.842-.741-1.423-.741h-2.865v-2.885h2.885c.902 0 1.683.22 2.364.681.681.46 1.202 1.102 1.562 1.943.361.842.561 1.803.561 2.925 0 1.122-.18 2.123-.56 2.985-.381.841-.902 1.502-1.583 1.983-.681.48-1.462.701-2.384.701h-2.825l-.02.02ZM38.447 98.41V81.623h8.614v2.885h-6.15v3.766h4.067v2.884H40.91v4.347h6.23v2.885h-8.674l-.02.02ZM49.045 98.41V81.623h3.105l3.826 12.4-.16-5.79v-6.61h2.324V98.41h-3.105l-3.847-12.22.2 5.61v6.61h-2.343ZM64.61 98.69c-.94 0-1.762-.26-2.443-.761-.681-.52-1.202-1.242-1.583-2.183-.38-.942-.56-2.064-.56-3.366h2.403c0 1.102.18 1.963.541 2.544.36.581.902.882 1.623.882.58 0 1.022-.18 1.362-.541.34-.36.52-.882.52-1.543 0-.48-.12-.861-.34-1.162-.22-.28-.52-.52-.901-.7-.38-.181-.781-.361-1.222-.522-.44-.16-.882-.36-1.342-.58-.441-.22-.862-.521-1.242-.862-.38-.36-.681-.821-.902-1.402-.22-.581-.34-1.322-.34-2.224 0-.901.18-1.763.52-2.504.361-.741.842-1.342 1.483-1.763.641-.44 1.382-.64 2.264-.64.8 0 1.522.22 2.203.64.661.441 1.202 1.062 1.623 1.883.42.822.64 1.803.66 2.985h-2.463c0-.58-.12-1.061-.32-1.442-.201-.38-.441-.681-.742-.882-.3-.2-.62-.3-.961-.3-.501 0-.922.16-1.262.5-.341.341-.501.822-.501 1.443 0 .44.12.801.34 1.082.22.28.521.5.902.66.38.161.781.321 1.242.482.44.16.901.34 1.342.56.44.221.861.521 1.222.882.38.38.681.881.901 1.502.22.621.34 1.423.34 2.384 0 .962-.2 1.843-.58 2.605-.38.76-.901 1.342-1.563 1.762-.66.421-1.422.621-2.263.621l.04-.04ZM73.624 81.623h3.625l3.206 16.787H77.97l-1.823-10.056-.701-4.207-.702 4.207-1.843 10.056h-2.424l3.186-16.787h-.04ZM72.2 94.844V91.96h6.791v2.884h-6.79ZM81.217 98.41l.841-16.787h3.045l1.002 8.253.32 3.506.32-3.506 1.002-8.253h2.985l.841 16.787H89.17l-.18-8.814v-4.407l-.501 4.407-1.122 8.814h-1.943l-1.142-8.814-.461-4.427-.06 4.427-.2 8.814h-2.344ZM93.137 98.41V81.623h8.614v2.885h-6.15v3.766h4.066v2.884h-4.066v4.347h6.23v2.885h-8.674l-.02.02ZM103.732 98.41V81.623h3.105l3.827 12.4-.161-5.79v-6.61h2.324V98.41h-3.105l-3.846-12.22.2 5.61v6.61h-2.344ZM117.975 98.41V84.508h-3.545v-2.885h9.535v2.885h-3.546V98.41h-2.444ZM130.157 98.69c-1.022 0-1.924-.36-2.685-1.06-.761-.702-1.362-1.704-1.783-3.006-.42-1.302-.621-2.844-.621-4.607 0-1.763.201-3.346.621-4.648.421-1.302 1.022-2.303 1.783-2.984a3.836 3.836 0 0 1 2.685-1.042c1.021 0 1.903.34 2.684 1.041.761.702 1.362 1.683 1.783 2.985.42 1.282.641 2.845.641 4.648 0 1.803-.201 3.325-.641 4.607-.421 1.302-1.022 2.304-1.783 3.005-.761.701-1.663 1.062-2.684 1.062Zm0-2.884c.5 0 .941-.22 1.322-.681.38-.46.681-1.122.901-1.983.221-.862.321-1.903.321-3.125s-.1-2.284-.321-3.145c-.22-.862-.521-1.523-.901-1.963-.381-.461-.822-.682-1.322-.682-.501 0-.942.22-1.323.681-.4.461-.701 1.122-.921 1.984-.22.861-.321 1.903-.321 3.125s.101 2.263.321 3.125c.22.861.521 1.522.921 1.983.401.46.842.681 1.323.681Z" />
</svg>