<svg xmlns="http://www.w3.org/2000/svg" width="243" height="147" fill="none">
    <path fill="#F8F8F8" stroke="#000" stroke-miterlimit="10"
        d="M121.615 145.994c66.613 0 120.614-32.458 120.614-72.497S188.228 1 121.615 1C55.001 1 1 33.458 1 73.497s54.001 72.497 120.615 72.497Z" />
    <path fill="#000"
        d="M46.334 52.183V35.395h8.614v2.885h-6.15v3.766h4.066v2.885h-4.066v4.347h6.23v2.885h-8.674l-.02.02ZM56.469 52.183l3.325-8.554-3.245-8.213h2.784l1.423 3.606.74 2.284.762-2.284 1.422-3.606h2.725l-3.245 8.153 3.385 8.634h-2.724l-1.523-3.946-.781-2.284-.781 2.264-1.523 3.966H56.49l-.02-.02ZM68.049 52.183V35.395h2.444v16.788h-2.444Zm1.743-5.55V43.75h2.804c.601 0 1.102-.26 1.462-.761.381-.521.561-1.182.561-2.023 0-.842-.18-1.443-.54-1.944-.361-.48-.842-.74-1.423-.74h-2.864v-2.886h2.884c.902 0 1.683.22 2.364.682.681.46 1.202 1.101 1.563 1.943.36.841.56 1.803.56 2.924 0 1.122-.18 2.124-.56 2.985-.381.842-.902 1.503-1.583 1.983-.681.481-1.462.702-2.384.702h-2.824l-.02.02ZM79.406 52.183V35.395h2.444v13.903h5.85v2.885H79.406ZM94.291 52.483c-1.021 0-1.923-.36-2.684-1.062-.761-.701-1.362-1.703-1.783-3.005-.42-1.302-.62-2.844-.62-4.607 0-1.763.2-3.346.62-4.648.42-1.302 1.022-2.303 1.783-2.985a3.836 3.836 0 0 1 2.684-1.041c1.022 0 1.903.34 2.685 1.041.76.702 1.362 1.683 1.783 2.985.42 1.282.64 2.845.64 4.648 0 1.803-.2 3.325-.64 4.607-.421 1.302-1.022 2.304-1.783 3.005-.762.701-1.663 1.062-2.685 1.062Zm0-2.885c.501 0 .942-.22 1.323-.681.38-.46.68-1.122.9-1.983.221-.862.321-1.903.321-3.125s-.1-2.284-.32-3.145c-.22-.862-.52-1.523-.901-1.964-.381-.46-.822-.68-1.323-.68-.5 0-.941.22-1.322.68-.4.461-.7 1.122-.921 1.984-.22.861-.32 1.903-.32 3.125s.1 2.263.32 3.125c.22.861.52 1.522.921 1.983.4.46.842.681 1.322.681ZM100.922 52.183V35.395h2.444v16.788h-2.444Zm1.743-6.51v-2.886h2.764c.401 0 .741-.1 1.022-.28.28-.18.521-.46.681-.821.16-.36.26-.782.26-1.242 0-.441-.08-.802-.22-1.122-.14-.32-.361-.561-.621-.741-.26-.18-.541-.26-.881-.26h-3.005v-2.885h3.005c.821 0 1.542.2 2.183.6.641.401 1.142.982 1.502 1.723.361.742.541 1.643.541 2.705 0 .66-.1 1.302-.32 1.903a5.732 5.732 0 0 1-.922 1.683c-.4.5-.881.9-1.462 1.201-.561.3-1.202.441-1.923.441h-2.624l.02-.02Zm4.767 6.51c-.02-.722-.14-1.443-.32-2.184-.2-.721-.461-1.422-.821-2.103a7.889 7.889 0 0 0-1.303-1.843 7.534 7.534 0 0 0-1.782-1.403l2.704-.8a8 8 0 0 1 1.783 1.702 9.924 9.924 0 0 1 1.242 2.063c.34.721.581 1.483.741 2.264.16.781.26 1.542.28 2.304h-2.524ZM111.959 52.183V35.395h8.614v2.885h-6.15v3.766h4.067v2.885h-4.067v4.347h6.23v2.885h-8.674l-.02.02ZM133.494 52.183V35.395h3.105l3.826 12.4-.16-5.789v-6.61h2.324v16.787h-3.105l-3.846-12.22.2 5.609v6.61h-2.344ZM148.979 52.483c-1.022 0-1.923-.36-2.685-1.062-.761-.701-1.362-1.703-1.782-3.005-.421-1.302-.621-2.844-.621-4.607 0-1.763.2-3.346.621-4.648.42-1.302 1.021-2.303 1.782-2.985a3.838 3.838 0 0 1 2.685-1.041c1.021 0 1.903.34 2.684 1.041.761.702 1.362 1.683 1.783 2.985.421 1.282.641 2.845.641 4.648 0 1.803-.2 3.325-.641 4.607-.421 1.302-1.022 2.304-1.783 3.005-.761.701-1.663 1.062-2.684 1.062Zm0-2.885c.501 0 .941-.22 1.322-.681.381-.46.681-1.122.901-1.983.221-.862.321-1.903.321-3.125s-.1-2.284-.321-3.145c-.22-.862-.52-1.523-.901-1.964-.381-.46-.821-.68-1.322-.68-.501 0-.942.22-1.322.68-.401.461-.701 1.122-.922 1.984-.22.861-.32 1.903-.32 3.125s.1 2.263.32 3.125c.221.861.521 1.522.922 1.983.4.46.841.681 1.322.681ZM159.996 52.483c-.942 0-1.763-.26-2.444-.761-.681-.52-1.202-1.242-1.583-2.184-.381-.941-.561-2.063-.561-3.365h2.404c0 1.102.18 1.963.541 2.544.361.581.901.882 1.623.882.581 0 1.021-.18 1.362-.541.34-.36.521-.882.521-1.543 0-.48-.121-.861-.341-1.162a2.48 2.48 0 0 0-.901-.7 14.13 14.13 0 0 0-1.222-.522c-.441-.16-.882-.36-1.343-.58-.44-.22-.861-.521-1.242-.862-.38-.36-.681-.821-.901-1.402-.22-.581-.341-1.322-.341-2.224 0-.901.181-1.763.521-2.504.361-.741.842-1.342 1.483-1.763.641-.44 1.382-.64 2.263-.64.802 0 1.523.22 2.204.64.661.441 1.202 1.062 1.623 1.883.42.822.641 1.803.661 2.985h-2.464c0-.58-.121-1.062-.321-1.442-.2-.38-.441-.681-.741-.882-.301-.2-.621-.3-.962-.3-.5 0-.921.16-1.262.5-.34.341-.501.822-.501 1.443 0 .44.121.801.341 1.082.22.28.521.5.902.66.38.161.781.321 1.242.482.44.16.901.34 1.342.56.44.22.861.521 1.222.882.38.38.681.881.901 1.502.22.621.341 1.423.341 2.384 0 .962-.201 1.843-.581 2.605-.381.76-.902 1.342-1.563 1.762-.661.421-1.422.621-2.263.621l.04-.04ZM170.935 52.483c-.941 0-1.763-.26-2.444-.761-.681-.52-1.202-1.242-1.582-2.184-.381-.941-.561-2.063-.561-3.365h2.404c0 1.102.18 1.963.54 2.544.361.581.902.882 1.623.882.581 0 1.022-.18 1.362-.541.341-.36.521-.882.521-1.543 0-.48-.12-.861-.34-1.162a2.484 2.484 0 0 0-.902-.7c-.381-.181-.781-.361-1.222-.522-.441-.16-.881-.36-1.342-.58a5.748 5.748 0 0 1-1.242-.862c-.381-.36-.681-.821-.902-1.402-.22-.581-.34-1.322-.34-2.224 0-.901.18-1.763.521-2.504.36-.741.841-1.342 1.482-1.763.641-.44 1.382-.64 2.264-.64.801 0 1.522.22 2.203.64.661.441 1.202 1.062 1.623 1.883.421.822.641 1.803.661 2.985h-2.464c0-.58-.12-1.062-.32-1.442-.201-.38-.441-.681-.742-.882-.3-.2-.621-.3-.961-.3-.501 0-.922.16-1.262.5-.341.341-.501.822-.501 1.443 0 .44.12.801.341 1.082.22.28.52.5.901.66.381.161.781.321 1.242.482.441.16.901.34 1.342.56.441.22.862.521 1.222.882.381.38.681.881.902 1.502.22.621.34 1.423.34 2.384 0 .962-.2 1.843-.581 2.605-.38.76-.901 1.342-1.562 1.762-.661.421-1.423.621-2.264.621l.04-.04ZM181.791 52.483c-1.021 0-1.923-.36-2.684-1.062-.761-.701-1.362-1.703-1.783-3.005-.421-1.302-.621-2.844-.621-4.607 0-1.763.2-3.346.621-4.648.421-1.302 1.022-2.303 1.783-2.985a3.836 3.836 0 0 1 2.684-1.041c1.022 0 1.903.34 2.685 1.041.761.702 1.362 1.683 1.783 2.985.42 1.282.641 2.845.641 4.648 0 1.803-.201 3.325-.641 4.607-.421 1.302-1.022 2.304-1.783 3.005-.762.701-1.663 1.062-2.685 1.062Zm0-2.885c.501 0 .942-.22 1.322-.681.381-.46.682-1.122.902-1.983.22-.862.32-1.903.32-3.125s-.1-2.284-.32-3.145c-.22-.862-.521-1.523-.902-1.964-.38-.46-.821-.68-1.322-.68-.5 0-.941.22-1.322.68-.4.461-.701 1.122-.921 1.984-.221.861-.321 1.903-.321 3.125s.1 2.263.321 3.125c.22.861.521 1.522.921 1.983.401.46.842.681 1.322.681ZM192.81 52.483c-.941 0-1.763-.26-2.444-.761-.681-.52-1.202-1.242-1.582-2.184-.381-.941-.561-2.063-.561-3.365h2.404c0 1.102.18 1.963.54 2.544.361.581.902.882 1.623.882.581 0 1.022-.18 1.362-.541.341-.36.521-.882.521-1.543 0-.48-.12-.861-.34-1.162a2.484 2.484 0 0 0-.902-.7c-.381-.181-.781-.361-1.222-.522-.441-.16-.881-.36-1.342-.58a5.748 5.748 0 0 1-1.242-.862c-.381-.36-.681-.821-.902-1.402-.22-.581-.34-1.322-.34-2.224 0-.901.18-1.763.521-2.504.36-.741.841-1.342 1.482-1.763.641-.44 1.382-.64 2.264-.64.801 0 1.522.22 2.203.64.661.441 1.202 1.062 1.623 1.883.421.822.641 1.803.661 2.985h-2.464c0-.58-.12-1.062-.32-1.442-.201-.38-.441-.681-.742-.882-.3-.2-.621-.3-.961-.3-.501 0-.922.16-1.262.5-.341.341-.501.822-.501 1.443 0 .44.12.801.341 1.082.22.28.52.5.901.66.381.161.781.321 1.242.482.441.16.901.34 1.342.56.441.22.862.521 1.222.882.381.38.681.881.902 1.502.22.621.34 1.423.34 2.384 0 .962-.2 1.843-.581 2.605-.38.76-.901 1.342-1.562 1.762-.661.421-1.423.621-2.264.621l.04-.04ZM56.13 81.33c-1.062 0-1.963-.36-2.725-1.081-.76-.721-1.342-1.743-1.763-3.045-.42-1.302-.62-2.825-.62-4.548 0-1.722.22-3.285.64-4.587.421-1.302 1.022-2.304 1.803-3.025.782-.721 1.703-1.062 2.745-1.062.821 0 1.582.24 2.283.702.702.46 1.263 1.141 1.703 2.003.441.881.701 1.923.742 3.165h-2.685c-.06-.902-.28-1.623-.64-2.164-.361-.54-.842-.82-1.423-.82-.521 0-.982.22-1.382.68-.401.44-.722 1.102-.942 1.963-.22.862-.34 1.923-.34 3.145s.12 2.284.34 3.145c.22.862.52 1.523.922 1.964.38.44.84.68 1.342.68.42 0 .781-.12 1.101-.38.321-.24.561-.6.762-1.062.2-.46.32-1.021.36-1.662h2.665c-.08 1.222-.32 2.283-.742 3.165-.42.901-.961 1.582-1.662 2.083-.701.481-1.523.741-2.464.741h-.02ZM66.927 81.33c-.981 0-1.843-.26-2.544-.781-.7-.52-1.242-1.262-1.622-2.204-.381-.941-.581-2.043-.581-3.285V64.263h2.464V75.06c0 .681.1 1.282.28 1.783.18.5.46.881.801 1.162.341.28.742.42 1.202.42.461 0 .882-.14 1.222-.42.34-.28.601-.661.802-1.162.2-.5.28-1.082.28-1.783V64.263h2.464V75.06c0 1.242-.2 2.344-.58 3.285-.381.942-.922 1.683-1.623 2.204-.702.52-1.563.781-2.545.781h-.02ZM73.576 81.05V64.263h2.444V81.05h-2.444Zm1.743-6.51v-2.885h2.764c.401 0 .742-.1 1.022-.28.28-.181.52-.462.681-.822.16-.36.26-.781.26-1.242 0-.44-.08-.802-.22-1.122-.14-.32-.36-.56-.62-.741-.261-.18-.542-.26-.882-.26h-3.005v-2.885h3.005c.821 0 1.542.2 2.183.6.641.401 1.142.982 1.503 1.723.36.742.54 1.643.54 2.705 0 .66-.1 1.302-.32 1.903a5.722 5.722 0 0 1-.921 1.683c-.401.5-.882.901-1.463 1.202-.56.3-1.202.44-1.923.44H75.3l.02-.02Zm4.768 6.51c-.02-.721-.14-1.442-.32-2.184-.201-.72-.462-1.422-.822-2.103a7.874 7.874 0 0 0-1.302-1.843 7.552 7.552 0 0 0-1.783-1.402l2.704-.802a7.996 7.996 0 0 1 1.783 1.703 9.91 9.91 0 0 1 1.242 2.063c.34.722.581 1.483.741 2.264.16.781.26 1.543.28 2.304h-2.523ZM88.902 81.33c-.942 0-1.763-.26-2.444-.761-.681-.521-1.202-1.242-1.583-2.184-.38-.941-.56-2.063-.56-3.365h2.403c0 1.102.18 1.963.541 2.544.36.58.902.881 1.623.881.58 0 1.021-.18 1.362-.54.34-.361.52-.882.52-1.543 0-.48-.12-.861-.34-1.162-.22-.28-.52-.52-.901-.701-.38-.18-.781-.36-1.222-.52-.44-.161-.882-.361-1.342-.582-.441-.22-.862-.52-1.242-.861-.38-.36-.681-.822-.902-1.403-.22-.58-.34-1.322-.34-2.223 0-.902.18-1.763.52-2.504.361-.741.842-1.342 1.483-1.763.641-.44 1.382-.641 2.264-.641.8 0 1.522.22 2.203.641.661.44 1.202 1.062 1.623 1.883.42.821.64 1.803.66 2.985h-2.463c0-.581-.12-1.062-.32-1.442-.201-.381-.441-.682-.742-.882-.3-.2-.62-.3-.961-.3-.501 0-.922.16-1.262.5-.341.341-.501.822-.501 1.443 0 .44.12.801.34 1.082.22.28.521.5.902.66.38.16.781.321 1.242.481.44.16.901.34 1.342.561.44.22.861.521 1.222.882.38.38.681.881.901 1.502.22.621.34 1.422.34 2.384s-.2 1.843-.58 2.604c-.38.761-.901 1.342-1.563 1.763-.66.42-1.422.621-2.263.621l.04-.04ZM99.76 81.33c-1.022 0-1.923-.36-2.684-1.061-.761-.701-1.362-1.703-1.783-3.005-.42-1.302-.621-2.845-.621-4.608 0-1.762.2-3.345.62-4.647.422-1.302 1.022-2.304 1.784-2.985a3.835 3.835 0 0 1 2.684-1.042c1.022 0 1.903.341 2.684 1.042.762.701 1.363 1.683 1.783 2.985.421 1.282.641 2.844.641 4.647 0 1.803-.2 3.326-.641 4.608-.42 1.302-1.021 2.304-1.783 3.005-.761.7-1.662 1.061-2.684 1.061Zm0-2.884c.501 0 .942-.22 1.322-.681.381-.461.681-1.122.902-1.984.22-.86.32-1.903.32-3.125s-.1-2.283-.32-3.145c-.221-.861-.521-1.522-.902-1.963-.38-.46-.821-.68-1.322-.68-.5 0-.941.22-1.322.68-.4.46-.701 1.122-.922 1.983-.22.862-.32 1.903-.32 3.125s.1 2.264.32 3.125c.22.862.521 1.523.922 1.984.4.46.841.68 1.322.68ZM110.777 81.33c-.942 0-1.763-.26-2.444-.761-.681-.521-1.202-1.242-1.583-2.184-.38-.941-.561-2.063-.561-3.365h2.404c0 1.102.181 1.963.541 2.544.361.58.902.881 1.623.881.581 0 1.021-.18 1.362-.54.341-.361.521-.882.521-1.543 0-.48-.12-.861-.341-1.162a2.48 2.48 0 0 0-.901-.701c-.381-.18-.781-.36-1.222-.52-.441-.161-.882-.361-1.342-.582a5.724 5.724 0 0 1-1.242-.861c-.381-.36-.681-.822-.902-1.403-.22-.58-.34-1.322-.34-2.223 0-.902.18-1.763.521-2.504.36-.741.841-1.342 1.482-1.763.641-.44 1.382-.641 2.264-.641.801 0 1.522.22 2.203.641.661.44 1.202 1.062 1.623 1.883.42.821.641 1.803.661 2.985h-2.464c0-.581-.12-1.062-.321-1.442-.2-.381-.44-.682-.741-.882-.3-.2-.621-.3-.961-.3-.501 0-.922.16-1.262.5-.341.341-.501.822-.501 1.443 0 .44.12.801.34 1.082.221.28.521.5.902.66.38.16.781.321 1.242.481.44.16.901.34 1.342.561.441.22.861.521 1.222.882.381.38.681.881.901 1.502.221.621.341 1.422.341 2.384s-.2 1.843-.581 2.604c-.381.761-.901 1.342-1.563 1.763-.661.42-1.422.621-2.263.621l.04-.04ZM130.729 64.263h3.626l3.205 16.787h-2.484l-1.823-10.056-.701-4.207-.701 4.207-1.843 10.056h-2.424l3.185-16.787h-.04Zm-1.422 13.221v-2.885h6.791v2.885h-6.791ZM142.249 81.05V67.147h-3.546v-2.884h9.536v2.884h-3.546V81.05h-2.444ZM154.427 81.33c-.981 0-1.843-.26-2.544-.781-.701-.52-1.242-1.262-1.622-2.204-.381-.941-.581-2.043-.581-3.285V64.263h2.464V75.06c0 .681.1 1.282.28 1.783.18.5.461.881.801 1.162.341.28.742.42 1.202.42.461 0 .882-.14 1.222-.42.341-.28.601-.661.802-1.162.2-.5.28-1.082.28-1.783V64.263h2.464V75.06c0 1.242-.2 2.344-.581 3.285-.381.942-.921 1.683-1.623 2.204-.701.52-1.562.781-2.544.781h-.02ZM163.542 64.263h3.625l3.206 16.787h-2.484l-1.823-10.056-.702-4.207-.701 4.207-1.843 10.056h-2.424l3.186-16.787h-.04Zm-1.423 13.221v-2.885h6.791v2.885h-6.791ZM172.297 64.263h7.993v2.884h-7.993v-2.884Zm0 13.902h7.993v2.885h-7.993v-2.885Zm2.784 2.885V64.263h2.444V81.05h-2.444ZM187.341 81.33c-.941 0-1.763-.26-2.444-.761-.681-.521-1.202-1.242-1.582-2.184-.381-.941-.561-2.063-.561-3.365h2.404c0 1.102.18 1.963.541 2.544.36.58.901.881 1.622.881.581 0 1.022-.18 1.362-.54.341-.361.521-.882.521-1.543 0-.48-.12-.861-.34-1.162a2.484 2.484 0 0 0-.902-.701c-.38-.18-.781-.36-1.222-.52-.44-.161-.881-.361-1.342-.582a5.748 5.748 0 0 1-1.242-.861c-.38-.36-.681-.822-.901-1.403-.221-.58-.341-1.322-.341-2.223 0-.902.18-1.763.521-2.504.361-.741.841-1.342 1.482-1.763.641-.44 1.383-.641 2.264-.641.801 0 1.523.22 2.204.641.661.44 1.202 1.062 1.622 1.883.421.821.641 1.803.661 2.985h-2.464c0-.581-.12-1.062-.32-1.442-.201-.381-.441-.682-.741-.882-.301-.2-.621-.3-.962-.3-.501 0-.921.16-1.262.5-.341.341-.501.822-.501 1.443 0 .44.12.801.341 1.082.22.28.521.5.901.66.381.16.781.321 1.242.481.441.16.902.34 1.342.561.441.22.862.521 1.222.882.381.38.681.881.902 1.502.22.621.34 1.422.34 2.384s-.2 1.843-.581 2.604c-.38.761-.901 1.342-1.562 1.763-.661.42-1.422.621-2.264.621l.04-.04ZM73.678 109.876V93.089h8.614v2.885h-6.15v3.766h4.066v2.884h-4.066v4.347h6.23v2.885h-8.674l-.02.02ZM95.412 109.876V93.089h8.734v2.885h-6.29v3.766h4.207v2.884h-4.207v7.232h-2.444v.02ZM110.677 110.176c-.981 0-1.843-.26-2.544-.781-.701-.521-1.242-1.262-1.622-2.204-.381-.941-.581-2.043-.581-3.285V93.108h2.464v10.798c0 .681.1 1.282.28 1.783.18.501.461.881.801 1.162.341.28.742.42 1.202.42.461 0 .882-.14 1.222-.42.341-.281.601-.661.802-1.162.2-.501.28-1.082.28-1.783V93.108h2.464v10.798c0 1.242-.2 2.344-.581 3.285-.38.942-.921 1.683-1.623 2.204-.701.521-1.562.781-2.544.781h-.02ZM120.372 109.876V95.973h-3.546V93.09h9.536v2.885h-3.546v13.902h-2.444ZM132.552 110.176c-.981 0-1.843-.26-2.544-.781-.701-.521-1.242-1.262-1.622-2.204-.381-.941-.581-2.043-.581-3.285V93.108h2.464v10.798c0 .681.1 1.282.28 1.783.18.501.461.881.801 1.162.341.28.742.42 1.202.42.461 0 .882-.14 1.222-.42.341-.281.601-.661.802-1.162.2-.501.28-1.082.28-1.783V93.108h2.464v10.798c0 1.242-.2 2.344-.581 3.285-.38.942-.921 1.683-1.623 2.204-.701.521-1.562.781-2.544.781h-.02ZM139.203 109.876V93.089h2.444v16.787h-2.444Zm1.743-6.511v-2.884h2.764c.401 0 .742-.1 1.022-.281.281-.18.521-.46.681-.821.16-.36.261-.781.261-1.242 0-.44-.081-.801-.221-1.122-.14-.32-.36-.56-.621-.741-.26-.18-.541-.26-.881-.26h-3.005v-2.885h3.005c.821 0 1.542.2 2.183.6.641.401 1.142.983 1.503 1.724.36.74.541 1.642.541 2.704 0 .661-.101 1.302-.321 1.903a5.733 5.733 0 0 1-.921 1.683 4.496 4.496 0 0 1-1.463 1.202c-.561.3-1.202.44-1.923.44h-2.624l.02-.02Zm4.768 6.511c-.02-.721-.141-1.442-.321-2.184-.2-.721-.461-1.422-.821-2.103a7.89 7.89 0 0 0-1.302-1.843 7.537 7.537 0 0 0-1.783-1.402l2.704-.801a7.984 7.984 0 0 1 1.783 1.702 9.862 9.862 0 0 1 1.242 2.064c.341.721.581 1.482.741 2.263.161.782.261 1.543.281 2.304h-2.524ZM154.448 110.176c-1.022 0-1.924-.36-2.685-1.062-.761-.701-1.362-1.702-1.783-3.004-.42-1.303-.621-2.845-.621-4.608 0-1.763.201-3.345.621-4.647.421-1.303 1.022-2.304 1.783-2.985a3.836 3.836 0 0 1 2.685-1.042c1.021 0 1.903.34 2.684 1.042.761.7 1.362 1.682 1.783 2.985.42 1.282.641 2.844.641 4.647 0 1.803-.2 3.325-.641 4.608-.421 1.302-1.022 2.303-1.783 3.004-.761.702-1.663 1.062-2.684 1.062Zm0-2.885c.5 0 .941-.22 1.322-.681.38-.46.681-1.121.901-1.983.221-.861.321-1.903.321-3.125s-.1-2.284-.321-3.145c-.22-.861-.521-1.522-.901-1.963-.381-.46-.822-.681-1.322-.681-.501 0-.942.22-1.323.68-.4.462-.701 1.123-.921 1.984-.22.862-.321 1.903-.321 3.125s.101 2.264.321 3.125c.22.862.521 1.523.921 1.983.401.461.842.681 1.323.681ZM165.466 110.177c-.941 0-1.763-.261-2.444-.762-.681-.52-1.202-1.242-1.582-2.183-.381-.942-.561-2.063-.561-3.366h2.404c0 1.102.18 1.964.541 2.545.36.58.901.881 1.622.881.581 0 1.022-.18 1.362-.541.341-.361.521-.881.521-1.542 0-.481-.12-.862-.34-1.162a2.474 2.474 0 0 0-.902-.701c-.38-.181-.781-.361-1.222-.521-.44-.161-.881-.361-1.342-.581a5.762 5.762 0 0 1-1.242-.862c-.38-.36-.681-.821-.901-1.402-.221-.58-.341-1.322-.341-2.223 0-.902.18-1.763.521-2.505.361-.74.841-1.342 1.482-1.762.641-.441 1.383-.641 2.264-.641.801 0 1.523.22 2.204.64.661.441 1.202 1.062 1.622 1.884.421.821.641 1.803.661 2.984h-2.464c0-.58-.12-1.061-.32-1.442-.201-.38-.441-.68-.741-.881-.301-.2-.621-.3-.962-.3-.501 0-.921.16-1.262.5-.341.34-.501.821-.501 1.442 0 .441.12.802.341 1.082.22.28.521.501.901.661.381.16.781.32 1.242.481.441.16.902.341 1.342.561.441.22.862.521 1.222.881.381.381.681.882.902 1.503.22.621.34 1.422.34 2.384 0 .961-.2 1.843-.581 2.604-.38.761-.901 1.342-1.562 1.763-.661.42-1.422.621-2.264.621l.04-.04Z" />
</svg>