<svg xmlns="http://www.w3.org/2000/svg" width="129" height="90" fill="none">
    <path fill="#F8F8F8"
        d="M126.918 47.622c.102-.14.217-.28.293-.433.102-.14.217-.28.294-.446.102-.14.217-.28.294-.432.102-.14.217-.28.293-.446.46-.636.728-1.387.728-2.189a3.78 3.78 0 0 0-1.698-3.156L67.442.65a3.805 3.805 0 0 0-4.251 0L3.472 40.508c-.536.356-.97.852-1.264 1.412-.102.14-.217.28-.293.446-.102.14-.217.28-.294.432-.102.14-.217.28-.293.433-.102.14-.217.28-.294.445-.102.14-.217.28-.294.446-.46.636-.74 1.387-.74 2.189a3.82 3.82 0 0 0 1.698 3.169L61.404 89.35a3.804 3.804 0 0 0 2.119.649c.74 0 1.48-.216 2.119-.649l59.706-39.871c.536-.357.97-.853 1.263-1.413.103-.14.217-.28.294-.445h.013Z" />
    <path fill="#000"
        d="M126.726 46.21 67.02 86.08a3.075 3.075 0 0 1-3.408 0L3.893 46.21c-1.813-1.21-1.813-3.87 0-5.078L63.612 1.273a3.075 3.075 0 0 1 3.408 0l59.706 39.871c1.813 1.21 1.813 3.87 0 5.078v-.013Z" />
    <path fill="#F8F8F8"
        d="M26.758 50.026c-.6 0-1.11-.19-1.545-.56-.434-.369-.766-.916-.983-1.603-.23-.687-.345-1.502-.345-2.444h1.698c0 .726.103 1.299.294 1.68.192.395.485.586.88.586.32 0 .563-.115.754-.344.192-.229.28-.547.28-.967 0-.318-.063-.56-.203-.738-.14-.178-.32-.331-.55-.458a5.664 5.664 0 0 0-.74-.344 5.977 5.977 0 0 1-.804-.407 2.951 2.951 0 0 1-.74-.65c-.23-.266-.409-.61-.55-1.043-.14-.432-.204-.98-.204-1.641 0-.662.115-1.299.345-1.846.23-.547.536-.98.945-1.31.408-.331.88-.484 1.43-.484.497 0 .957.165 1.378.483.422.319.779.777 1.034 1.388.268.598.409 1.349.421 2.227h-1.736c-.012-.395-.076-.726-.178-.98a1.328 1.328 0 0 0-.409-.573.83.83 0 0 0-.523-.19c-.256 0-.473.101-.664.305-.179.203-.268.496-.268.903 0 .306.064.535.204.713.14.178.32.318.549.433.23.114.472.216.74.318.268.102.537.229.805.394.268.166.51.37.74.65.23.28.409.648.549 1.106.14.459.204 1.044.204 1.757 0 .712-.127 1.336-.357 1.883-.23.547-.575.98-.996 1.298-.421.318-.906.471-1.455.471v-.013ZM32.437 37.67h2.592l1.864 12.154H35.13l-.957-6.897-.447-3.245-.447 3.245-.97 6.897H30.6l1.85-12.153h-.013Zm.192-.94-1.187-.32c.038-.775.153-1.412.37-1.92.217-.497.523-.752.932-.752.191 0 .37.039.51.102.14.077.269.153.383.255.115.102.217.178.307.254.09.077.191.102.293.102.154 0 .268-.089.332-.267.064-.178.102-.37.115-.598l1.213.318c-.051.763-.179 1.4-.409 1.909-.23.509-.536.763-.931.763a1.02 1.02 0 0 1-.6-.19c-.18-.128-.332-.255-.473-.37a.613.613 0 0 0-.421-.178c-.14 0-.255.09-.32.267a2.173 2.173 0 0 0-.114.624Zm-.932 10.766V45.14h4.315v2.355h-4.315ZM40.775 50.026c-.639 0-1.213-.254-1.698-.75-.485-.51-.868-1.235-1.136-2.164-.268-.942-.409-2.062-.409-3.36s.14-2.443.409-3.385c.268-.942.65-1.654 1.136-2.163.485-.497 1.047-.751 1.698-.751.65 0 1.2.254 1.685.75.485.497.855 1.222 1.123 2.151.268.93.409 2.062.409 3.386 0 1.323-.14 2.418-.409 3.36-.268.941-.638 1.666-1.123 2.163-.485.509-1.047.75-1.685.75v.013Zm0-2.354c.268 0 .523-.153.74-.458.217-.306.383-.75.51-1.336.129-.586.192-1.298.192-2.138 0-.84-.063-1.566-.191-2.151-.128-.585-.294-1.03-.51-1.336-.218-.306-.46-.459-.741-.459-.281 0-.524.153-.74.459-.218.305-.396.75-.524 1.336-.128.585-.192 1.298-.192 2.138 0 .84.064 1.553.192 2.138s.293 1.03.523 1.336c.23.306.46.458.74.458v.013ZM49.315 49.823V37.669h1.736v12.154h-1.736Zm1.238-3.818V43.65h1.672c.332 0 .6-.165.805-.508.204-.344.306-.79.306-1.35s-.102-.967-.306-1.285c-.205-.33-.473-.483-.805-.483h-1.672v-2.355h1.672c.587 0 1.085.166 1.52.51.434.33.765.814 1.008 1.437.242.624.357 1.35.357 2.19 0 .84-.114 1.59-.357 2.226-.243.637-.575 1.12-1.009 1.477-.434.356-.944.521-1.532.521H50.54l.013-.025ZM57.817 37.67h2.591l1.864 12.153H60.51l-.957-6.898-.447-3.245-.447 3.245-.97 6.898h-1.71l1.85-12.154h-.012Zm-.74 9.824v-2.355h4.314v2.355h-4.315ZM66.153 50.026c-.638 0-1.175-.19-1.621-.56-.447-.369-.792-.903-1.034-1.59-.243-.688-.358-1.49-.358-2.406v-7.8h1.736v7.8c0 .459.051.84.153 1.171.103.331.256.573.447.751a.968.968 0 0 0 .677.267c.255 0 .498-.089.676-.267.192-.178.332-.433.447-.75.115-.319.154-.714.154-1.172v-7.8h1.736v7.8c0 .917-.115 1.718-.358 2.406-.242.687-.587 1.221-1.034 1.59-.447.382-.996.56-1.621.56ZM70.633 49.823V37.669h1.736v9.812h3.55v2.355h-5.273l-.013-.013ZM80.22 50.026c-.638 0-1.212-.254-1.697-.75-.485-.51-.868-1.235-1.136-2.164-.268-.942-.409-2.062-.409-3.36s.14-2.443.409-3.385c.268-.942.65-1.654 1.136-2.163.485-.497 1.047-.751 1.698-.751.65 0 1.2.254 1.685.75.485.497.855 1.222 1.123 2.151.268.93.409 2.062.409 3.386 0 1.323-.14 2.418-.409 3.36-.268.941-.638 1.666-1.123 2.163-.485.509-1.047.75-1.685.75v.013Zm0-2.354c.269 0 .524-.153.741-.458.217-.306.383-.75.51-1.336.129-.586.192-1.298.192-2.138 0-.84-.063-1.566-.191-2.151-.128-.585-.294-1.03-.51-1.336-.218-.306-.46-.459-.741-.459-.281 0-.524.153-.74.459-.218.305-.396.75-.524 1.336-.128.585-.191 1.298-.191 2.138 0 .84.063 1.553.191 2.138s.294 1.03.523 1.336c.23.306.46.458.74.458v.013ZM85.02 49.824v-3.016h1.889v3.016l-.97 3.309h-1.494l.587-1.464.983-1.883-.983.038h-.013ZM96.715 50.026c-.6 0-1.111-.19-1.545-.56-.434-.369-.766-.916-.983-1.603-.23-.687-.345-1.502-.345-2.444h1.698c0 .726.102 1.299.294 1.68.191.395.485.586.88.586.32 0 .562-.115.754-.344.191-.229.28-.547.28-.967 0-.318-.063-.56-.204-.738-.14-.178-.319-.331-.549-.458a5.656 5.656 0 0 0-.74-.344 5.97 5.97 0 0 1-.804-.407 2.951 2.951 0 0 1-.74-.65c-.23-.266-.41-.61-.55-1.043-.14-.432-.204-.98-.204-1.641 0-.662.115-1.299.345-1.846.23-.547.536-.98.944-1.31.409-.331.881-.484 1.43-.484.498 0 .958.165 1.379.483.421.319.779.777 1.034 1.388.268.598.409 1.349.421 2.227h-1.736c-.013-.395-.076-.726-.179-.98a1.328 1.328 0 0 0-.408-.573.83.83 0 0 0-.523-.19c-.256 0-.473.101-.664.305-.179.203-.268.496-.268.903 0 .306.064.535.204.713.14.178.319.318.549.433.23.114.472.216.74.318.268.102.536.229.805.394.268.166.51.37.74.65.23.28.408.648.549 1.106.14.459.204 1.044.204 1.757 0 .712-.128 1.336-.357 1.883-.23.547-.575.98-.996 1.298-.421.318-.907.471-1.455.471v-.013ZM100.926 49.823V37.669h1.736v12.154h-1.736Zm1.239-3.818V43.65h1.672c.332 0 .6-.165.804-.508.204-.344.307-.79.307-1.35s-.103-.967-.307-1.285c-.204-.33-.472-.483-.804-.483h-1.672v-2.355h1.672c.587 0 1.085.166 1.519.51.434.33.766.814 1.009 1.437.242.624.357 1.35.357 2.19 0 .84-.115 1.59-.357 2.226-.243.637-.575 1.12-1.009 1.477-.434.356-.945.521-1.532.521h-1.672l.013-.025ZM56.884 19.484h2.591l1.864 12.153h-1.762l-.957-6.897-.447-3.245-.447 3.245-.97 6.897h-1.71l1.85-12.153h-.012Zm-.74 9.824v-2.354h4.314v2.354h-4.315ZM65.22 31.854c-.65 0-1.212-.267-1.697-.789-.485-.535-.855-1.26-1.123-2.202-.268-.941-.396-2.036-.396-3.296 0-1.26.128-2.354.396-3.296.268-.942.65-1.68 1.149-2.201.497-.522 1.097-.79 1.787-.79.498 0 .97.166 1.404.497.434.33.779.814 1.06 1.45.28.637.434 1.413.46 2.33h-1.903c-.025-.548-.128-1.006-.32-1.375-.19-.369-.433-.56-.752-.56-.294 0-.55.153-.779.458-.23.306-.409.751-.536 1.337-.128.585-.192 1.298-.192 2.138 0 .84.064 1.552.205 2.138.127.585.319 1.03.561 1.336.243.305.524.458.83.458.255 0 .485-.064.664-.178a2.17 2.17 0 0 0 .523-.547v-1.375l-.97.09.051-2.38h2.63v4.479c-.32.713-.728 1.273-1.226 1.667-.498.407-1.11.611-1.825.611ZM70.94 19.484h2.59l1.865 12.153h-1.762l-.957-6.897-.447-3.245-.447 3.245-.97 6.897h-1.71l1.85-12.153h-.013Zm-.741 9.824v-2.354h4.315v2.354h-4.315ZM51.166 68.353c-.625 0-1.187-.267-1.672-.815-.485-.534-.856-1.285-1.136-2.227-.281-.942-.422-2.023-.422-3.245s.14-2.303.422-3.245c.28-.942.65-1.693 1.136-2.227.485-.535 1.034-.815 1.672-.815.638 0 1.187.267 1.672.815.486.534.856 1.285 1.136 2.227.281.942.422 2.023.422 3.245s-.14 2.303-.422 3.245c-.28.942-.65 1.693-1.136 2.227-.485.535-1.034.815-1.672.815Zm0-1.324c.447 0 .843-.216 1.187-.636.345-.42.613-1.005.817-1.756.204-.751.294-1.604.294-2.57 0-.968-.102-1.82-.294-2.572-.191-.75-.472-1.336-.817-1.756-.344-.42-.74-.636-1.187-.636-.447 0-.842.216-1.187.636-.345.42-.613 1.006-.817 1.756-.204.751-.294 1.604-.294 2.571 0 .967.102 1.82.294 2.57.191.752.472 1.337.817 1.757.345.42.74.636 1.187.636Zm0-1.527c-.32 0-.6-.153-.842-.458-.243-.305-.447-.713-.588-1.247-.14-.535-.204-1.133-.204-1.82s.077-1.285.217-1.82c.14-.534.345-.942.587-1.234.243-.293.536-.433.856-.433.395 0 .714.255.983.725.268.471.408 1.082.446 1.833h-.906c-.026-.356-.09-.662-.204-.89-.102-.23-.23-.345-.37-.345-.192 0-.358.204-.498.599-.128.394-.205.903-.205 1.527 0 .649.064 1.183.205 1.603.127.42.293.624.498.624.166 0 .293-.115.408-.356.102-.242.166-.548.179-.917h.893c-.038.751-.191 1.375-.46 1.858-.267.484-.6.726-.995.726v.025ZM55.416 68.136v-1.972a36.518 36.518 0 0 0 2.183-2.749c.549-.789.945-1.489 1.2-2.1.255-.61.383-1.17.383-1.68 0-.47-.09-.827-.268-1.094-.179-.267-.409-.395-.69-.395-.331 0-.6.191-.816.56-.217.37-.32.866-.307 1.502h-1.71c0-.916.127-1.705.383-2.367.242-.662.587-1.17 1.008-1.527a2.23 2.23 0 0 1 1.48-.535c.524 0 .997.153 1.405.471.409.318.728.751.958 1.324.23.572.344 1.234.344 1.998 0 .763-.102 1.501-.293 2.176-.192.674-.511 1.336-.945 1.998-.434.662-.996 1.336-1.71 2.049h2.948v2.354h-5.553v-.013ZM65.208 68.353c-.613 0-1.136-.255-1.583-.776-.447-.522-.779-1.248-1.022-2.19-.242-.941-.357-2.048-.357-3.32 0-1.274.115-2.38.357-3.322.243-.942.575-1.668 1.022-2.19.447-.521.97-.776 1.583-.776.612 0 1.149.255 1.583.764.447.509.778 1.234 1.021 2.176.243.942.357 2.062.357 3.347 0 1.285-.114 2.38-.357 3.322-.243.941-.575 1.667-1.021 2.188-.447.522-.97.777-1.583.777Zm0-2.354c.395 0 .702-.331.893-.993.192-.662.294-1.642.294-2.94s-.102-2.278-.294-2.94c-.191-.661-.498-.992-.893-.992-.396 0-.677.33-.881.992-.204.662-.294 1.642-.294 2.94s.102 2.278.294 2.94c.204.662.485.993.88.993ZM69.471 68.136v-1.972a36.496 36.496 0 0 0 2.183-2.749c.55-.789.945-1.489 1.2-2.1.256-.61.383-1.17.383-1.68 0-.47-.09-.827-.268-1.094-.179-.267-.408-.395-.69-.395-.331 0-.6.191-.816.56-.217.37-.32.866-.307 1.502h-1.71c0-.916.127-1.705.383-2.367.242-.662.587-1.17 1.008-1.527a2.23 2.23 0 0 1 1.481-.535c.523 0 .996.153 1.404.471.409.318.728.751.958 1.324.23.572.344 1.234.344 1.998 0 .763-.102 1.501-.293 2.176-.192.674-.51 1.336-.945 1.998-.434.662-.996 1.336-1.71 2.049h2.949v2.354H69.47v-.013ZM79.493 68.136V65.49H76.11v-1.972l2.77-7.547h2.387v7.152h1.15v2.355h-1.15v2.647H79.48l.013.013Zm-1.634-5h1.634V60.78l.038-2.635-.766 2.33-.906 2.646v.013Z" />
</svg>