<svg xmlns="http://www.w3.org/2000/svg" width="211" height="167" fill="none">
    <path fill="#F8F8F8" stroke="#000" stroke-miterlimit="10"
        d="m100.551 2.698-96.396 74.5c-4.207 3.265-4.207 9.616 0 12.88l96.396 74.501a8.146 8.146 0 0 0 9.956 0l96.395-74.5c4.207-3.265 4.207-9.616 0-12.881l-96.395-74.5a8.147 8.147 0 0 0-9.956 0Z" />
    <path fill="#000"
        d="M66.856 63.455c-1.022 0-1.923-.36-2.684-1.061-.762-.701-1.363-1.703-1.783-3.005-.421-1.302-.621-2.845-.621-4.608 0-1.762.2-3.345.62-4.647.421-1.302 1.022-2.304 1.783-2.985a3.835 3.835 0 0 1 2.685-1.042c1.021 0 1.903.341 2.684 1.042.761.701 1.362 1.683 1.783 2.985.42 1.282.641 2.844.641 4.647 0 1.803-.2 3.326-.641 4.608-.42 1.302-1.022 2.304-1.783 3.005-.761.7-1.663 1.061-2.684 1.061Zm0-2.884c.5 0 .941-.22 1.322-.681.38-.461.681-1.122.901-1.983.22-.862.32-1.904.32-3.126 0-1.221-.1-2.283-.32-3.145-.22-.861-.52-1.522-.901-1.963-.38-.46-.821-.68-1.322-.68-.501 0-.942.22-1.322.68-.401.46-.702 1.122-.922 1.983-.22.862-.32 1.904-.32 3.125 0 1.222.1 2.264.32 3.126.22.86.521 1.522.922 1.983.4.46.841.68 1.322.68ZM84.525 63.176V46.389h8.614v2.884h-6.15v3.766h4.067v2.885h-4.067v4.347h6.23v2.885h-8.674l-.02.02ZM99.75 63.456c-.942 0-1.763-.26-2.444-.761-.681-.521-1.202-1.242-1.583-2.184-.38-.941-.56-2.063-.56-3.365h2.403c0 1.102.18 1.963.54 2.544.361.58.902.881 1.624.881.58 0 1.021-.18 1.362-.54.34-.361.521-.882.521-1.543 0-.48-.121-.861-.341-1.162a2.48 2.48 0 0 0-.901-.701 14.08 14.08 0 0 0-1.222-.521c-.441-.16-.882-.36-1.343-.58a5.75 5.75 0 0 1-1.242-.862c-.38-.36-.68-.822-.901-1.403-.22-.58-.34-1.322-.34-2.223 0-.902.18-1.763.52-2.504.36-.741.842-1.342 1.483-1.763.64-.44 1.382-.641 2.263-.641.802 0 1.523.22 2.204.641.661.44 1.202 1.062 1.622 1.883.421.821.641 1.803.661 2.985h-2.463c0-.581-.121-1.062-.321-1.443-.2-.38-.441-.68-.741-.88-.301-.201-.621-.301-.962-.301-.5 0-.921.16-1.262.5-.34.34-.5.822-.5 1.443 0 .44.12.801.34 1.081.22.28.52.501.901.662.381.16.782.32 1.242.48.441.16.902.34 1.343.561.44.22.861.521 1.222.882.38.38.681.881.901 1.502.22.621.341 1.422.341 2.384 0 .961-.201 1.843-.581 2.604-.381.761-.902 1.342-1.563 1.763-.661.42-1.422.621-2.263.621l.04-.04ZM106.24 63.176V46.389h2.444v16.787h-2.444Zm1.743-5.55v-2.884h2.805c.601 0 1.101-.26 1.462-.761.381-.52.561-1.182.561-2.023 0-.842-.18-1.443-.541-1.944-.361-.48-.841-.74-1.422-.74h-2.865v-2.885h2.885c.901 0 1.682.22 2.364.68.681.462 1.201 1.103 1.562 1.944s.561 1.803.561 2.925c0 1.121-.18 2.123-.561 2.984-.381.842-.901 1.503-1.583 1.984-.681.48-1.462.7-2.383.7h-2.825l-.02.02ZM119.702 46.389h3.626l3.205 16.787h-2.484l-1.823-10.056-.701-4.207-.701 4.207-1.843 10.056h-2.424l3.185-16.787h-.04Zm-1.423 13.221v-2.885h6.791v2.885h-6.791ZM132.602 63.455c-1.061 0-1.963-.36-2.724-1.081-.761-.721-1.342-1.743-1.763-3.045-.421-1.302-.621-2.825-.621-4.548 0-1.722.22-3.285.641-4.587.421-1.302 1.022-2.304 1.803-3.025.781-.721 1.703-1.062 2.745-1.062.821 0 1.582.24 2.283.702.701.46 1.262 1.141 1.703 2.003.441.881.701 1.923.741 3.165h-2.684c-.06-.902-.281-1.623-.641-2.164-.361-.54-.842-.82-1.423-.82-.52 0-.981.22-1.382.68-.4.44-.721 1.102-.941 1.963-.221.862-.341 1.923-.341 3.145s.12 2.284.341 3.145c.22.862.521 1.523.921 1.964.381.44.842.68 1.342.68.421 0 .782-.12 1.102-.38.321-.24.561-.6.761-1.062.201-.46.321-1.021.361-1.662h2.664c-.08 1.222-.32 2.283-.741 3.165-.421.901-.961 1.582-1.663 2.083-.701.481-1.522.741-2.464.741h-.02Zm-.04 5.049c-.26 0-.541-.04-.841-.12-.28-.08-.561-.18-.821-.281V66.58c.18.1.38.18.601.22.22.06.44.08.661.08.24 0 .44-.04.621-.14.18-.1.26-.26.26-.481 0-.2-.08-.34-.24-.44-.161-.1-.341-.161-.561-.161-.1 0-.201 0-.321.04-.1.02-.2.06-.3.1l-.361-.861 1.022-2.404 1.162.52-.601 1.283s.12-.02.16-.04h.14c.261 0 .521.08.782.22.26.14.44.36.6.641.161.28.241.661.241 1.102 0 .52-.1.941-.301 1.262-.2.32-.48.58-.801.741-.32.16-.701.24-1.102.24ZM143.42 63.455c-1.021 0-1.923-.36-2.684-1.061-.761-.701-1.362-1.703-1.783-3.005-.421-1.302-.621-2.845-.621-4.608 0-1.762.2-3.345.621-4.647s1.022-2.304 1.783-2.985a3.836 3.836 0 0 1 2.684-1.042c1.022 0 1.903.341 2.685 1.042.761.701 1.362 1.683 1.782 2.985.421 1.282.641 2.844.641 4.647 0 1.803-.2 3.326-.641 4.608-.42 1.302-1.021 2.304-1.782 3.005-.762.7-1.663 1.061-2.685 1.061Zm0-2.884c.501 0 .942-.22 1.322-.681.381-.461.681-1.122.902-1.983.22-.862.32-1.904.32-3.126 0-1.221-.1-2.283-.32-3.145-.221-.861-.521-1.522-.902-1.963-.38-.46-.821-.68-1.322-.68-.501 0-.941.22-1.322.68-.401.46-.701 1.122-.921 1.983-.221.862-.321 1.904-.321 3.125 0 1.222.1 2.264.321 3.126.22.86.52 1.522.921 1.983.401.46.841.68 1.322.68ZM40.773 92.022V75.234h8.614v2.885h-6.15v3.766h4.067v2.885h-4.067v4.347h6.23V92h-8.673l-.02.02ZM66.856 92.302c-1.022 0-1.923-.36-2.684-1.062-.762-.7-1.363-1.702-1.783-3.004-.421-1.303-.621-2.845-.621-4.608 0-1.763.2-3.345.62-4.647.421-1.302 1.022-2.304 1.783-2.985a3.835 3.835 0 0 1 2.685-1.042c1.021 0 1.903.34 2.684 1.042.761.7 1.362 1.683 1.783 2.985.42 1.282.641 2.844.641 4.647 0 1.803-.2 3.326-.641 4.608-.42 1.302-1.022 2.303-1.783 3.004-.761.702-1.663 1.062-2.684 1.062Zm0-2.885c.5 0 .941-.22 1.322-.68.38-.461.681-1.122.901-1.984.22-.861.32-1.903.32-3.125s-.1-2.284-.32-3.145c-.22-.861-.52-1.522-.901-1.963-.38-.46-.821-.681-1.322-.681-.501 0-.942.22-1.322.68-.401.462-.702 1.123-.922 1.984-.22.862-.32 1.903-.32 3.125s.1 2.264.32 3.125c.22.862.521 1.523.922 1.983.4.461.841.681 1.322.681ZM88.551 92.303c-.962 0-1.823-.361-2.564-1.062-.741-.701-1.322-1.703-1.743-3.025-.42-1.302-.621-2.845-.621-4.607 0-1.763.2-3.346.621-4.648.42-1.302 1.002-2.304 1.743-2.985.741-.7 1.602-1.041 2.584-1.041s1.843.34 2.584 1.041c.741.701 1.322 1.683 1.743 2.985.42 1.282.621 2.845.621 4.648 0 .881-.08 1.722-.22 2.544-.14.821-.36 1.542-.621 2.203-.26.661-.561 1.202-.922 1.603l1.242-.46 1.162-.101-.48 2.885H88.55v.02Zm0-2.885c.48 0 .881-.24 1.242-.701.36-.46.621-1.142.841-2.003.2-.882.3-1.903.3-3.085s-.1-2.244-.3-3.105c-.2-.862-.48-1.523-.841-1.984-.36-.46-.761-.7-1.242-.7-.48 0-.881.22-1.242.68-.36.461-.641 1.122-.841 1.984-.2.86-.3 1.903-.3 3.125s.1 2.243.3 3.105c.2.861.48 1.522.841 2.003.36.46.781.701 1.242.701v-.02ZM99.65 92.302c-.982 0-1.843-.26-2.544-.781-.701-.521-1.242-1.262-1.623-2.204-.38-.941-.58-2.043-.58-3.285V75.234h2.463v10.798c0 .68.1 1.282.28 1.783.181.5.462.881.802 1.162.34.28.741.42 1.202.42.461 0 .881-.14 1.222-.42.341-.28.601-.662.801-1.162.201-.501.281-1.082.281-1.783V75.234h2.464v10.798c0 1.242-.201 2.344-.581 3.285-.381.942-.922 1.683-1.623 2.204-.701.52-1.562.78-2.544.78h-.02ZM106.4 92.022V75.234h8.614v2.885h-6.15v3.766h4.067v2.885h-4.067v4.347h6.23V92h-8.674l-.02.02ZM128.176 92.022V75.234h2.444v16.788h-2.444Zm1.743-6.511v-2.885h2.764c.401 0 .741-.1 1.022-.28.28-.18.521-.46.681-.822.16-.36.26-.78.26-1.242 0-.44-.08-.8-.22-1.121-.14-.32-.361-.561-.621-.742a1.478 1.478 0 0 0-.882-.26h-3.004v-2.885h3.004c.822 0 1.543.2 2.184.601.641.401 1.142.982 1.502 1.723.361.741.541 1.643.541 2.705 0 .66-.1 1.302-.32 1.903a5.732 5.732 0 0 1-.922 1.682c-.4.501-.881.902-1.462 1.202-.561.3-1.202.441-1.923.441h-2.624l.02-.02Zm4.767 6.51c-.02-.72-.14-1.442-.32-2.183a10.42 10.42 0 0 0-.822-2.103 7.856 7.856 0 0 0-1.302-1.843 7.516 7.516 0 0 0-1.783-1.403l2.705-.801a8.003 8.003 0 0 1 1.783 1.703 9.921 9.921 0 0 1 1.242 2.063c.34.721.581 1.483.741 2.264.16.781.26 1.542.28 2.303h-2.524ZM143.42 92.302c-1.021 0-1.923-.36-2.684-1.062-.761-.7-1.362-1.702-1.783-3.004-.421-1.303-.621-2.845-.621-4.608 0-1.763.2-3.345.621-4.647s1.022-2.304 1.783-2.985a3.836 3.836 0 0 1 2.684-1.042c1.022 0 1.903.34 2.685 1.042.761.7 1.362 1.683 1.782 2.985.421 1.282.641 2.844.641 4.647 0 1.803-.2 3.326-.641 4.608-.42 1.302-1.021 2.303-1.782 3.004-.762.702-1.663 1.062-2.685 1.062Zm0-2.885c.501 0 .942-.22 1.322-.68.381-.461.681-1.122.902-1.984.22-.861.32-1.903.32-3.125s-.1-2.284-.32-3.145c-.221-.861-.521-1.522-.902-1.963-.38-.46-.821-.681-1.322-.681-.501 0-.941.22-1.322.68-.401.462-.701 1.123-.921 1.984-.221.862-.321 1.903-.321 3.125s.1 2.264.321 3.125c.22.862.52 1.523.921 1.983.401.461.841.681 1.322.681ZM150.41 92.022V75.234h2.444v13.903h5.85v2.885H150.41ZM163.452 75.234h3.626l3.205 16.788h-2.484l-1.823-10.057-.701-4.207-.701 4.207-1.843 10.056h-2.424l3.185-16.787h-.04Zm-1.423 13.222V85.57h6.791v2.885h-6.791ZM67.957 120.868v-16.787h2.444v16.787h-2.444Zm1.743-5.549v-2.884h2.804c.601 0 1.102-.261 1.463-.762.38-.521.56-1.182.56-2.023 0-.841-.18-1.442-.54-1.943-.36-.481-.842-.741-1.422-.741H69.7v-2.885h2.885c.901 0 1.682.22 2.363.681.681.461 1.202 1.102 1.563 1.943.36.842.56 1.803.56 2.925 0 1.122-.18 2.123-.56 2.985-.38.841-.902 1.502-1.583 1.983-.68.481-1.462.701-2.384.701H69.72l-.02.02ZM83.262 121.149c-1.022 0-1.923-.361-2.684-1.062-.761-.701-1.362-1.703-1.783-3.005-.42-1.302-.621-2.844-.621-4.607 0-1.763.2-3.346.62-4.648.422-1.302 1.023-2.303 1.784-2.985a3.835 3.835 0 0 1 2.684-1.041c1.022 0 1.903.34 2.684 1.041.762.702 1.363 1.683 1.783 2.985.42 1.282.641 2.845.641 4.648 0 1.803-.2 3.325-.64 4.607-.421 1.302-1.022 2.304-1.784 3.005-.76.701-1.662 1.062-2.684 1.062Zm0-2.885c.5 0 .942-.22 1.322-.681.38-.461.681-1.122.902-1.983.22-.862.32-1.903.32-3.125s-.1-2.284-.32-3.145c-.22-.862-.521-1.523-.902-1.963-.38-.461-.821-.682-1.322-.682-.5 0-.942.221-1.322.682-.4.46-.701 1.121-.922 1.983-.22.861-.32 1.903-.32 3.125s.1 2.263.32 3.125c.22.861.521 1.522.922 1.983.4.461.841.681 1.322.681ZM89.893 120.868v-16.787h2.444v16.787h-2.444Zm1.742-6.51v-2.885H94.4c.4 0 .741-.1 1.021-.28.281-.181.521-.461.682-.822.16-.36.26-.781.26-1.242 0-.441-.08-.801-.22-1.122-.14-.32-.36-.561-.621-.741-.26-.18-.541-.26-.882-.26h-3.005v-2.885h3.005c.822 0 1.543.2 2.184.601.64.401 1.142.982 1.502 1.723.36.741.541 1.643.541 2.704 0 .661-.1 1.302-.32 1.903a5.727 5.727 0 0 1-.922 1.683c-.4.501-.881.901-1.462 1.202-.561.3-1.202.441-1.923.441h-2.625l.02-.02Zm4.768 6.51c-.02-.721-.14-1.442-.32-2.183a10.39 10.39 0 0 0-.822-2.104 7.878 7.878 0 0 0-1.302-1.843 7.558 7.558 0 0 0-1.783-1.402l2.705-.801a7.977 7.977 0 0 1 1.782 1.702c.501.641.922 1.343 1.243 2.064.34.721.58 1.482.74 2.263.161.782.261 1.543.281 2.304h-2.524ZM112.129 120.868v-16.787h2.444v13.902h5.849v2.885h-8.293ZM125.17 104.101h3.626l3.206 16.787h-2.485l-1.822-10.056-.702-4.207-.701 4.207-1.843 10.056h-2.424l3.186-16.787h-.041Zm-1.422 13.222v-2.885h6.791v2.885h-6.791Zm1.743-14.684 1.442-4.107h2.444l-1.883 4.107h-2.003ZM136.568 120.868v-3.746h2.705v3.746h-2.705Zm.501-5.008-.481-8.914v-2.865h2.705v2.865l-.481 8.914h-1.743Z" />
</svg>