<svg width="1411" height="169" viewBox="0 0 1411 169" fill="none" xmlns="http://www.w3.org/2000/svg">
<path d="M446.784 149.467C444.004 149.467 442.24 147.669 442.24 137.392V87.319C442.24 66.517 432.149 55.7343 408.196 55.7343C386.261 55.7343 373.402 70.3697 373.402 83.208C373.402 89.633 376.677 94.7659 382.732 94.7659C389.79 94.7659 394.08 90.3965 394.08 77.2998C394.08 69.5945 400.135 65.7418 405.935 65.7418C413.755 65.7418 419.555 69.43 419.555 96.0462C380.575 112.761 369.239 126.668 369.239 143.617C369.239 158.769 378.961 168.988 393.077 168.988C402.66 168.988 411.736 162.822 419.555 152.556C419.809 162.575 423.592 168.988 433.175 168.988C444.016 168.988 452.585 160.003 457.129 146.389L451.328 143.558C450.071 147.153 449.056 149.467 446.784 149.467ZM419.555 141.503C414.516 148.175 408.968 151.781 403.675 151.781C396.871 151.781 392.442 146.131 392.442 137.145C392.442 126.069 400.607 116.813 419.567 106.582V141.503H419.555ZM559.999 156.913V165.641H514.111V156.913C522.68 156.655 524.952 153.061 524.952 140.986V99.6405C524.952 80.6356 520.166 74.7274 512.854 74.7274C505.542 74.7274 497.977 81.9159 492.683 88.0825V140.986C492.683 153.566 494.955 156.397 504.285 156.913V165.641H457.636V156.913C467.727 156.655 469.987 153.061 469.987 140.986V92.1936C469.987 78.075 468.223 75.2442 464.187 75.2442C462.168 75.2442 460.15 75.7611 458.639 76.5245L455.86 68.5608L487.379 55.7226H492.672V76.783C503.005 63.4279 513.096 55.7226 524.444 55.7226C537.557 55.7226 547.636 64.7082 547.636 91.1599V140.974C547.636 152.791 549.908 156.643 559.988 156.902L559.999 156.913ZM369.377 69.8529C369.377 78.3217 364.591 84.2299 358.79 84.2299C349.968 84.2299 350.717 74.2106 345.678 74.2106C341.895 74.2106 337.109 83.1962 334.076 93.2155V139.436C334.076 154.071 336.602 156.385 349.46 156.902V165.629H299.282V156.902C308.866 156.643 311.38 153.049 311.38 140.974V91.665C311.38 78.3099 309.869 75.2325 305.833 75.2325C303.814 75.2325 301.796 75.7493 300.032 76.5128L297.506 68.5491L328.771 55.7108H334.064V77.7931H334.572C340.626 62.1241 347.938 55.7108 355.503 55.7108C363.069 55.7108 369.366 60.8438 369.366 69.8294L369.377 69.8529ZM1175.22 18.488C1175.22 8.21038 1183.79 0 1193.11 0C1203.7 0 1211.27 8.22213 1211.27 18.488C1211.27 28.754 1203.45 36.7177 1193.11 36.7177C1182.78 36.7177 1175.22 28.754 1175.22 18.488ZM237.26 85.5102H297.264V93.979C286.677 94.7542 283.898 99.3703 283.898 116.32V155.093C271.039 163.82 252.125 168.965 236.995 168.965C191.36 168.965 164.881 132.247 164.881 89.1044C164.881 45.9617 193.125 4.09932 234.469 4.09932C253.129 4.09932 262.459 14.1186 267.752 14.1186C270.774 14.1186 271.788 11.8046 272.042 4.09932H281.372L285.155 55.4641H276.079C270.024 29.2708 254.397 16.9493 236.741 16.9493C215.06 16.9493 194.889 40.3237 194.889 84.2299C194.889 128.136 213.041 156.397 236.995 156.397C245.817 156.397 252.379 153.578 257.165 148.691V120.184C257.165 99.1236 254.893 95.0126 237.248 93.9907V85.5219L237.26 85.5102ZM118.001 136.1L118.059 136.523L79.9323 6.1666H50.9394V8.73895L54.4684 20.8137L20.159 138.097V137.909C16.8952 149.208 12.0977 156.655 0 156.655V165.641H43.87V156.655C33.26 156.655 27.9665 154.188 30.5844 144.698L38.8072 116.59H82.4811L90.8076 145.05C92.9757 154.4 88.501 156.655 77.1645 156.655V165.641H136.673V156.655C125.325 156.655 122.303 150.747 118.013 136.111L118.001 136.1ZM42.486 103.998L60.3961 40.5703H60.9036L78.8022 103.998H42.486ZM1219.1 156.902V165.629H1169.93V156.902C1181.03 156.385 1183.05 153.307 1183.05 140.974V93.4621C1183.05 78.8267 1181.79 75.2325 1175.74 75.2325C1174.22 75.2325 1172.46 75.7493 1170.95 76.2544L1168.42 68.5491L1200.45 55.7108H1205.74V140.974C1205.74 154.071 1208.02 156.126 1219.11 156.902H1219.1ZM1166.9 156.902V165.629H1121.01V156.902C1129.58 156.643 1131.85 153.049 1131.85 140.974V99.6287C1131.85 80.6239 1127.07 74.7157 1119.76 74.7157C1112.44 74.7157 1104.88 81.9042 1099.59 88.0708V140.974C1099.59 153.554 1101.86 156.385 1111.19 156.902V165.629H1064.54V156.902C1074.63 156.643 1076.89 153.049 1076.89 140.974V92.1818C1076.89 78.0633 1075.13 75.2325 1071.09 75.2325C1069.07 75.2325 1067.05 75.7493 1065.54 76.5128L1062.76 68.5491L1094.28 55.7108H1099.57V76.7712C1109.91 63.4161 1120 55.7108 1131.35 55.7108C1144.46 55.7108 1154.54 64.6964 1154.54 91.1482V140.963C1154.54 152.779 1156.81 156.632 1166.89 156.89L1166.9 156.902ZM703.718 55.7226C678.254 55.7226 660.852 78.8385 660.852 113.501C660.852 145.085 677.239 168.965 701.446 168.965C722.632 168.965 735.733 148.938 739.515 125.822L733.461 123.003C727.66 138.155 718.999 144.193 707.743 144.193C693.846 144.193 679.523 131.354 678.589 102.436H739.515C739.515 73.7995 725.653 55.7226 703.707 55.7226H703.718ZM678.958 91.9117C680.653 77.1001 687.607 67.7973 698.932 67.7973C707.501 67.7973 714.57 75.1385 714.57 91.9117H678.958ZM1025.45 55.7226C999.99 55.7226 982.588 78.8385 982.588 113.501C982.588 145.085 998.975 168.965 1023.18 168.965C1044.37 168.965 1057.47 148.938 1061.25 125.822L1055.2 123.003C1049.4 138.155 1040.73 144.193 1029.48 144.193C1015.58 144.193 1001.26 131.354 1000.32 102.436H1061.25C1061.25 73.7995 1047.39 55.7226 1025.44 55.7226H1025.45ZM1000.69 91.9117C1002.39 77.1001 1009.34 67.7973 1020.67 67.7973C1029.24 67.7973 1036.31 75.1385 1036.31 91.9117H1000.69ZM1312.14 148.175C1308.11 148.175 1305.59 144.839 1305.59 134.561V0.011745H1300.3L1267.78 13.1084L1270.3 21.0721C1272.07 20.2969 1274.34 19.7918 1276.1 19.7918C1280.14 19.7918 1282.91 22.8693 1282.91 36.4828V64.9901H1282.65C1279.12 59.3403 1272.32 55.746 1264.5 55.746C1238.53 55.746 1220.38 82.7146 1220.38 116.096C1220.38 146.918 1236.26 169 1256.43 169C1268.28 169 1276.6 161.553 1282.65 154.106H1282.91V169H1288.71L1320.99 154.881L1318.21 146.918C1316.19 147.94 1314.17 148.198 1312.15 148.198L1312.14 148.175ZM1282.9 139.952C1278.86 146.119 1273.06 151.252 1267.26 151.252C1255.16 151.252 1245.32 138.414 1245.32 107.851C1245.32 77.288 1256.16 67.7856 1265.75 67.7856C1274.82 67.7856 1282.9 74.7157 1282.9 93.7205V139.941V139.952ZM1405.19 143.547C1403.93 147.141 1402.92 149.455 1400.64 149.455C1397.88 149.455 1396.1 147.658 1396.1 137.38V87.3073C1396.1 66.5053 1386.01 55.7226 1362.07 55.7226C1340.13 55.7226 1327.27 70.3579 1327.27 83.1962C1327.27 89.6212 1330.55 94.7542 1336.6 94.7542C1343.66 94.7542 1347.95 90.3847 1347.95 77.288C1347.95 69.5827 1354.01 65.7301 1359.81 65.7301C1367.63 65.7301 1373.43 69.4183 1373.43 96.0345C1334.45 112.749 1323.11 126.656 1323.11 143.605C1323.11 158.758 1332.83 168.977 1346.95 168.977C1356.53 168.977 1365.61 162.81 1373.43 152.544C1373.68 162.563 1377.46 168.977 1387.05 168.977C1397.89 168.977 1406.46 159.991 1411 146.377L1405.2 143.547H1405.19ZM1373.42 141.491C1368.38 148.163 1362.83 151.769 1357.54 151.769C1350.73 151.769 1346.3 146.119 1346.3 137.133C1346.3 126.057 1354.47 116.801 1373.43 106.571V141.491H1373.42ZM653.056 148.163C649.019 148.163 646.505 144.827 646.505 134.549V0.011745H641.212L608.69 13.1084L611.215 21.0721C612.98 20.2969 615.252 19.7918 617.016 19.7918C621.053 19.7918 623.821 22.8693 623.821 36.4828V64.9901H623.567C620.038 59.3403 613.234 55.746 605.414 55.746C579.443 55.746 561.291 82.7146 561.291 116.096C561.291 146.918 577.171 169 597.342 169C609.197 169 617.512 161.553 623.567 154.106H623.821V169H629.621L661.89 154.881L659.122 146.918C657.104 147.94 655.085 148.198 653.067 148.198L653.056 148.163ZM623.809 139.941C619.773 146.107 613.972 151.24 608.171 151.24C596.073 151.24 586.236 138.402 586.236 107.839C586.236 77.2763 597.076 67.7738 606.66 67.7738C615.736 67.7738 623.809 74.7039 623.809 93.7088V139.929V139.941ZM889.058 136.088L889.116 136.511L850.989 6.15485H821.996V8.7272L825.525 20.802L791.216 138.085V137.897C787.952 149.196 783.155 156.643 771.057 156.643V165.629H814.927V156.643C804.317 156.643 799.023 154.177 801.641 144.686L809.864 116.578H853.538L861.865 145.038C864.033 154.388 859.558 156.643 848.221 156.643V165.629H907.73V156.643C896.382 156.643 893.36 150.735 889.07 136.1L889.058 136.088ZM813.543 103.986L831.453 40.5586H831.949L849.848 103.986H813.532H813.543ZM984.617 67.7738C977.087 67.7738 972.866 73.3884 969.74 83.9479L945.533 165.864H932.421L905.688 84.9698C900.971 70.7456 897.616 68.7957 889.047 67.7621V59.0349H937.714V67.7621C929.641 67.7621 926.793 69.9586 926.793 75.35C926.793 78.3099 929.169 84.9698 931.164 91.1364L944.276 131.707H945.037L958.404 85.2283C960.157 79.1086 961.345 75.3265 961.345 73.1535C961.345 69.5945 959.857 67.7621 951.853 67.7621V59.0349H984.629V67.7621L984.617 67.7738Z" fill="black"/>
</svg>
